{"title":"The.Beaver.2011.BRRip.Xvid.AC3-SiC","uid":6597672,"size":1405213915,"categoryP":"video","categoryS":"movies","magnet":"?xt=urn:btih:c2917e4512464df4df51348fb3072d2e43a63e89&amp;dn=The.Beaver.2011.BRRip.Xvid.AC3-SiC&amp;tr=udp%3A%2F%2Ftracker.openbittorrent.com%3A80&amp;tr=udp%3A%2F%2Fopen.demonii.com%3A1337&amp;tr=udp%3A%2F%2Ftracker.coppersurfer.tk%3A6969&amp;tr=udp%3A%2F%2Fexodus.desync.com%3A6969","seeders":0,"leechers":1,"uploader":"sceneline","files":5,"time":1313080639,"description":"- &lt;a href=&quot;\nhttp://www.Speed.Cd&quot; rel=&quot;nofollow&quot; target=&quot;_NEW&quot;&gt;\nhttp://www.Speed.Cd&lt;/a&gt; \n       &lt;a href=&quot;\nhttp://www.Speed.Cd&quot; rel=&quot;nofollow&quot; target=&quot;_NEW&quot;&gt;\nhttp://www.Speed.Cd&lt;/a&gt;      fast  and The Hottest Private Tracker on the net\n\n(((--Registration will be open on june every weekend--)))\n\nPlease Seed back to make the speed Faster!!!\n\n------------------nfo--------------------------\n-\n\n\n\n\n\n\n\n\n\n\n\n\n\n\n\n\n\n\n\n\n\n\n\n\n\n\n\n\n\n\n\n\n\n\n\n\n\n\n\n\n          \n          \n              \n              \n                    \n                    \n                    \n                    \n\nThe.Beaver.2011.BRRip.Xvid.AC3-SiC\n\nPoster:\n[img]http://leetleech.org/images/06839852519450905681.jpg[/img]\n\nIMDB Link:\nhttp://www.imdb.com/title/tt1321860/\n\nDescription:\nA troubled husband and executive adopts a beaver hand-puppet as his sole means\nof communicating. \n\nMediaInfo:\nGeneral\nComplete name                    : The.Beaver.2011.BRRip.Xvid.AC3-SiC.avi\nFormat                           : AVI\nFormat/Info                      : Audio Video Interleave\nFile size                        : 1.30 GiB\nDuration                         : 1h 30mn\nOverall bit rate                 : 2 039 Kbps\n\nVideo\nID                               : 0\nFormat                           : MPEG-4 Visual\nFormat profile                   : Advanced Simple@L5\nFormat settings, BVOP            : Yes\nFormat settings, QPel            : No\nFormat settings, GMC             : No warppoints\nFormat settings, Matrix          : Default (H.263)\nMuxing mode                      : Packed bitstream\nCodec ID                         : XVID\nCodec ID/Hint                    : XviD\nDuration                         : 1h 30mn\nBit rate                         : 1 647 Kbps\nWidth                            : 720 pixels\nHeight                           : 304 pixels\nDisplay aspect ratio             : 2.35:1\nFrame rate                       : 23.976 fps\nResolution                       : 8 bits\nColorimetry                      : 4:2:0\nScan type                        : Progressive\nBits/(Pixel*Frame)               : 0.314\nStream size                      : 1.05 GiB (81%)\nWriting library                  : XviD 64\n\nAudio\nID                               : 1\nFormat                           : AC-3\nFormat/Info                      : Audio Coding 3\nFormat_Settings_ModeExtension    : CM (complete main)\nCodec ID                         : 2000\nDuration                         : 1h 30mn\nBit rate mode                    : Constant\nBit rate                         : 384 Kbps\nChannel(s)                       : 6 channels\nChannel positions                : Front: L C R, Side: L R, LFE\nSampling rate                    : 48.0 KHz\nStream size                      : 250 MiB (19%)\nAlignment                        : Aligned on interleaves\nInterleave, duration             : 64 ms (1.53 video frames)\nInterleave, preload duration     : 192 ms\nTitle                            : 6ch English\n\nScreenshots:\n[img]http://leetleech.org/images/42018775660510550461.png[/img]\n[img]http://leetleech.org/images/31660809602195790796.png[/img]\n[img]http://leetleech.org/images/43782894615842694705.png[/img]\n[img]http://leetleech.org/images/97242748047031548190.png[/img]\n[img]http://leetleech.org/images/53391511769172885582.png[/img]\n\nNote :   N/A \n\nSource : BluRay-AMIABLE Thanks!!!\n\nEncoder: Bezauk\n\nEnjoy!\n\nRespects to CaptainHomey, Cyanide, CM8, Rx, THC, ELEKTRI4KA, \nKillerhz, PA, YeFsTe, BoxSlots, MrRep and everyone in the struggle...","torrent":{"xt":"urn:btih:c2917e4512464df4df51348fb3072d2e43a63e89","amp;dn":"The.Beaver.2011.BRRip.Xvid.AC3-SiC","amp;tr":["udp%3A%2F%2Ftracker.openbittorrent.com%3A80","udp%3A%2F%2Fopen.demonii.com%3A1337","udp%3A%2F%2Ftracker.coppersurfer.tk%3A6969","udp%3A%2F%2Fexodus.desync.com%3A6969"],"infoHash":"c2917e4512464df4df51348fb3072d2e43a63e89","infoHashBuffer":{"type":"Buffer","data":[194,145,126,69,18,70,77,244,223,81,52,143,179,7,45,46,67,166,62,137]},"announce":[],"urlList":[]}}